<?xml version="1.0" encoding="utf-8"?>
<!-- Generator: Adobe Illustrator 18.0.0, SVG Export Plug-In . SVG Version: 6.00 Build 0)  -->
<!DOCTYPE svg PUBLIC "-//W3C//DTD SVG 1.1//EN" "http://www.w3.org/Graphics/SVG/1.1/DTD/svg11.dtd">
<svg version="1.1" xmlns="http://www.w3.org/2000/svg" xmlns:xlink="http://www.w3.org/1999/xlink" x="0px" y="0px"
	 viewBox="0 0 512 512" enable-background="new 0 0 512 512" xml:space="preserve">
<g id="Inudstrializados" display="none">
	<g display="inline">
		<g>
			<defs>
				<rect id="SVGID_1_" x="41.9" y="0" width="429" height="512"/>
			</defs>
			<clipPath id="SVGID_2_">
				<use xlink:href="#SVGID_1_"  overflow="visible"/>
			</clipPath>
			<path clip-path="url(#SVGID_2_)" d="M255.8,511.6c-119.9,0-213.9-39.8-213.9-90.6c0-0.5,0-1,0-1.5c0-0.2,0-0.4,0-0.6V91
				c0,0,0-0.1,0-0.1c0-0.1,0-0.2,0-0.3C41.9,39.8,135.9,0,255.8,0c119.9,0,213.9,39.8,213.9,90.6c0,0.1,0,0.2,0,0.3c0,0,0,0.1,0,0.1
				V419c0,0.2,0,0.4,0,0.6c0,0.5,0,1,0,1.5C469.7,471.8,375.7,511.6,255.8,511.6L255.8,511.6z M54.2,418.1c0.1,0.4,0.1,0.8,0.1,1.2
				c0,0.6-0.1,1.1-0.1,1.7c0,42.5,92.3,78.3,201.6,78.3c109.3,0,201.6-35.9,201.6-78.3c0-0.6,0-1.2-0.1-1.7c0-0.4,0-0.8,0.1-1.3
				V121.7c-29.2,35.2-107.4,59.8-201.6,59.8S83.4,156.8,54.2,121.7V418.1z M54.2,91.4c1.1,42.1,93,77.5,201.6,77.5
				c108.6,0,200.4-35.4,201.6-77.5c0-0.1,0-0.3,0-0.4c0-0.1,0-0.2,0-0.2v-0.2c0-42.5-92.3-78.3-201.6-78.3
				c-109.3,0-201.6,35.9-201.6,78.3v0.2c0,0.1,0,0.1,0,0.2C54.2,91.1,54.2,91.3,54.2,91.4L54.2,91.4z M255.8,162.8
				c-49.4,0-95.9-7-131-19.8c-37-13.5-57.4-32.2-57.4-52.8c0-20.5,20.4-39.3,57.4-52.8c35.1-12.8,81.6-19.8,131-19.8
				c49.4,0,95.9,7,131,19.8c37,13.5,57.4,32.2,57.4,52.8c0,20.5-20.4,39.3-57.4,52.8C351.7,155.7,305.2,162.8,255.8,162.8
				L255.8,162.8z M228.7,30.6C191,32.6,156.3,39,129,48.9C97.7,60.4,79.7,75.4,79.7,90.2c0,14.8,18,29.8,49.3,41.2
				c33.8,12.3,78.8,19.1,126.8,19.1c48,0,93-6.8,126.8-19.1c31.4-11.4,49.4-26.5,49.4-41.2c0-14.8-18-29.8-49.4-41.2
				c-26.5-9.7-60-15.9-96.4-18.2c0,0.1,0.1,0.2,0.1,0.4L297,60.4c2.1,5.7,1.2,12-2.2,16.9c-3.5,4.9-9.1,7.9-15.1,7.9H237
				c-5.9,0-11.3-2.7-14.8-7.5c-3.5-4.7-4.6-10.7-2.8-16.4l8.9-29.3C228.3,31.6,228.5,31.1,228.7,30.6L228.7,30.6z M245.9,31.2
				c-2.8,0-5.2,1.8-6,4.4L231,64.9c-0.6,1.9-0.2,3.9,1,5.5c1.2,1.6,3,2.5,5,2.5h42.6c2.1,0,3.9-1,5.1-2.7c1.2-1.7,1.5-3.8,0.7-5.7
				l-10.6-29.3c-0.9-2.5-3.2-4.1-5.9-4.1H245.9z M269.1,66L269.1,66l-22.2-0.1c-3.4,0-6.1-2.8-6.1-6.2c0-3.4,2.8-6.1,6.1-6.1h0
				l22.2,0.1c3.4,0,6.1,2.8,6.1,6.2C275.2,63.3,272.5,66,269.1,66L269.1,66z M269.1,66"/>
		</g>
	</g>
</g>
<g id="Frutas" display="none">
	<path display="inline" d="M287.4,514c-11.6,0-20.9-0.1-28.9-1.7c-2.3-0.5-4.6-0.5-6.9,0c-8.4,1.7-18.4,1.7-31,1.7h-2.1
		c-35.5,0-64.5-12.7-83.8-36.6c-14.5-18-23.6-42.8-24.9-68.1c-2.2-42.7,8.5-70.8,47.6-125.4c22.9-31.9,31.8-77.5,38.4-110.7
		c4.8-24.5,8.3-42.3,15.6-50.5c11.8-13.4,27.8-13.8,37.9-12.4c0.4-9.1-0.5-27.9-10.8-49.3c-14.7-30.4-35-44.4-35.2-44.5
		c-3.1-2.1-3.9-6.2-1.8-9.3c2.1-3.1,6.2-3.9,9.3-1.8c1,0.6,23.5,15.9,39.8,49.8c2.3,4.8,4.2,9.5,5.8,14l20.7-14.9
		c3-15.7,16.4-43.1,49.6-50.1c43.4-9.2,62.6,13.4,63.4,14.4c1.4,1.7,1.9,4,1.3,6.1c-0.5,1.7-12.3,42.7-43.7,49.5
		c-24.4,5.3-53.1-4.5-63.3-8.5L260,83c2.5,11.3,2.8,20.8,2.6,27.1c10.1-1.1,24.9,0,36,12.6c7.3,8.3,10.8,26,15.6,50.5
		c6.5,33.3,15.5,78.8,38.4,110.7c39.1,54.6,49.8,82.7,47.6,125.4l-6.7-0.3l6.7,0.3c-1.3,25-10.6,49.8-25.6,68.1
		c-19.6,23.9-48.3,36.6-83.1,36.6h-2.1C288.7,514,288.1,514,287.4,514z M255,498.5c2.1,0,4.1,0.2,6.2,0.6c7.1,1.5,16.4,1.4,28.3,1.4
		h2.1c71.5,0,93.6-57.8,95.3-92c2-39.5-7.7-64.6-45.1-116.9c-24.6-34.3-33.9-81.5-40.6-115.9c-3.9-19.9-7.6-38.7-12.5-44.3
		c-10.5-11.9-26.9-8.2-31.7-6.8c-1.2,0.4-2.6,0.4-3.8,0c-4.8-1.4-21.2-5.1-31.7,6.8c-4.9,5.5-8.6,24.3-12.5,44.2
		c-6.8,34.5-16.1,81.7-40.6,116c-37.4,52.2-47.1,77.4-45.1,116.9c2.2,42.4,28.4,92,95.3,92h2.1c11.9,0,21.2,0,28.3-1.4
		C250.9,498.7,252.9,498.5,255,498.5z M290.9,53.8c10.3,3.8,34.3,11.5,53.7,7.2l0,0c18.9-4.1,29.1-27.2,32.4-36.3
		c-5.6-4.5-20.5-13.2-47.8-7.5C302.5,23,293.6,44.1,290.9,53.8z M149,399.4c-3.6,0-6.5-2.8-6.7-6.4c-1.4-38.3,33.5-80.4,35-82.2
		c2.4-2.8,6.6-3.2,9.4-0.8c2.8,2.4,3.2,6.6,0.8,9.4c-0.5,0.5-33.1,40-31.9,73.1c0.1,3.7-2.7,6.8-6.4,6.9
		C149.1,399.4,149,399.4,149,399.4z"/>
</g>
<g id="Leguminosas" display="none">
	<g display="inline">
		<g>
			<path d="M421.5,164C421.5,164,421.5,164,421.5,164c-18.2,0-34.7-11-41.8-27.8c-9.8-23.1,0.9-49.9,24-59.7
				c5.7-2.4,11.7-3.7,17.8-3.7c18.2,0,34.7,10.8,41.8,27.6c4.8,11.2,4.9,23.5,0.4,34.8c-4.5,11.3-13.2,20.2-24.3,25
				C433.7,162.6,427.7,164,421.5,164z M421.5,87.8c-4.1,0-8.1,0.8-11.9,2.5c-15.4,6.6-22.6,24.7-16,40.1c4.8,11.2,15.8,18.6,28,18.6
				c0,0,0,0,0,0c4.1,0,8.1-1,11.9-2.6c7.5-3.2,13.3-9.2,16.3-16.7c3-7.6,2.9-15.9-0.3-23.3C444.7,95.1,433.7,87.8,421.5,87.8z"/>
		</g>
		<g>
			<path d="M354.1,249C354.1,249,354.1,249,354.1,249c-18.2,0-34.7-10.7-41.8-27.5c-4.8-11.2-4.9-23.5-0.4-34.7s13.2-20.1,24.3-24.8
				c5.7-2.4,11.7-3.6,17.8-3.6c18.2,0,34.7,10.8,41.8,27.6c9.8,23.1-0.9,49.7-24,59.6C366.2,247.9,360.2,249,354.1,249z
				 M354.1,173.3c-4.1,0-8.1,0.8-11.9,2.5c-7.5,3.2-13.3,9.1-16.3,16.7s-2.9,15.7,0.3,23.2c4.8,11.2,15.8,18.4,28,18.4c0,0,0,0,0,0
				c4.1,0,8.1-0.7,11.9-2.3c15.4-6.6,22.6-24.5,16-39.9C377.3,180.5,366.3,173.3,354.1,173.3z"/>
		</g>
		<g>
			<path d="M254.2,319C254.2,319,254.2,319,254.2,319c-18.2,0-34.7-11.1-41.8-27.8c-9.8-23.1,0.9-49.9,24-59.8
				c5.7-2.4,11.7-3.7,17.8-3.7c18.2,0,34.7,10.8,41.8,27.6c4.8,11.2,4.9,23.5,0.4,34.8c-4.5,11.3-13.2,20.3-24.3,25.1
				C266.3,317.5,260.3,319,254.2,319z M254.2,242.6c-4.1,0-8.1,0.8-11.9,2.5c-15.4,6.6-22.6,24.8-16.1,40.2
				c4.8,11.2,15.8,18.7,28,18.7c0,0,0,0,0,0c4.1,0,8.1-1.1,11.9-2.7c7.5-3.2,13.3-9.2,16.3-16.8s2.9-15.9-0.3-23.4
				C277.4,249.9,266.4,242.6,254.2,242.6z"/>
		</g>
		<g>
			<path d="M156.4,392C156.4,392,156.4,392,156.4,392c-18.2,0-34.7-10.7-41.8-27.5c-4.8-11.2-4.9-23.5-0.4-34.7
				c4.5-11.3,13.2-20.1,24.3-24.8c5.7-2.4,11.7-3.7,17.8-3.7c18.2,0,34.7,10.8,41.8,27.6c9.8,23.1-0.9,49.7-24,59.6
				C168.6,390.9,162.6,392,156.4,392z M156.4,316.3c-4.1,0-8.1,0.8-11.9,2.5c-7.5,3.2-13.3,9.1-16.3,16.7c-3,7.6-2.9,15.7,0.3,23.2
				c4.8,11.2,15.8,18.4,28,18.4c0,0,0,0,0,0c4.1,0,8.1-0.7,11.9-2.4c15.4-6.6,22.6-24.5,16.1-39.9
				C179.6,323.5,168.6,316.3,156.4,316.3z"/>
		</g>
		<g>
			<path d="M28.6,503.7l0-0.1l-14.8-2.5c0.2-1,4.8-25.4,44-48c1.5-0.9,3.1-1.8,4.7-2.6c-21.1-70-2.7-107.4,1.1-114
				c9.9-30.6,47.4-54,94.8-83.5c47.7-29.7,101.7-63.3,144.9-114.1C374.9,54.9,432.6-8.2,470.1,5.2c19.7,7.1,29.6,33.7,30.5,81.6
				c0.6,36.7-17.1,77.3-52.6,120.8c-29,35.6-69.7,73-121,111.1c-87.4,65-188.1,118.4-227.1,131.9c-8.8,3-16.9,6.4-24.3,10
				c-0.4,0.2-0.8,0.4-1.2,0.6c-3.1,1.5-6.1,3.1-8.9,4.8C39.4,481,30,497.3,28.6,503.7z M459.4,18.4c-15.6,0-38.4,17.6-55.7,33.5
				c-27.5,25.2-59,61.6-88.9,96.6c-44.8,52.6-102.3,88.4-148.4,117.1c-43.4,27-80.8,50.3-88.6,76c-0.2,0.7-0.5,1.3-0.9,1.9
				c0,0-5.5,8.9-8,26.5c-2.2,15.2-2.5,39.9,7.4,73.7c5.9-2.6,12.2-5.1,18.7-7.3c31.7-11,129.7-60.4,223.1-129.8
				c50.2-37.4,90-73.9,118.3-108.5c33.2-40.7,49.7-78.1,49.2-111.1c-0.8-50.2-11.6-64.5-20.5-67.7C463.3,18.7,461.4,18.4,459.4,18.4
				z"/>
		</g>
	</g>
</g>
<g id="Layer_4">
	<g>
		<g>
			<path d="M27,511.7c-6.8,0-13.2-2.7-18.1-7.6c-4.9-4.9-7.6-11.3-7.6-18c0-7.3,3-14.3,8.5-19.8l64.9-64.9
				c-16.5-20.8-34.3-51.2-34.3-85.7c0-16.9,5-51.1,38.1-90.2c4.5-5.5,11.3-8.7,18.5-8.7c7.1,0,13.9,3.2,18.6,8.7
				c33.1,39.2,38.1,73.4,38.1,90.3c-0.1,22-7.4,42.3-16.6,59.1c16.8-9.2,37.1-16.5,59.1-16.6c16.9,0,51.1,5.1,90.2,38.2
				c5.5,4.6,8.7,11.3,8.7,18.6c0,7.2-3.1,14-8.6,18.6c-20.7,17.4-53.1,38.1-90.3,38.1c-34.1,0-64.1-17.4-84.6-33.6l-65.2,65.1
				C41.3,508.7,34.3,511.7,27,511.7z M97.2,231.2c-2.9,0-5.7,1.3-7.5,3.5c-13,15.3-34.8,46.2-34.8,80.9c0,34.9,22,66.1,35.1,81.5
				l4.3,5l-74.2,74.2c-2.8,2.8-4.3,6.2-4.3,9.7c0,2.9,1.2,5.6,3.4,7.8c2.2,2.2,5,3.4,7.9,3.4c3.4,0,6.8-1.5,9.6-4.3l74.4-74.3l5,4.2
				c33.9,28.4,62.5,34.3,80.5,34.3c18.1,0,46.9-6,81-34.7c2.2-1.9,3.5-4.7,3.5-7.6c0-2.9-1.3-5.7-3.5-7.5l-0.1-0.1
				c-15.3-13-46.1-34.7-81-34.8c-12.8,0-47,3.9-85.6,38.9l-10.1-10.2c14.5-16,38.9-48.3,38.9-85.6c-0.1-34.7-21.8-65.6-34.7-81
				C102.9,232.5,100.1,231.2,97.2,231.2z M293,375.1c-23.5,0-47.9-8.3-72.3-24.6c-17.1-11.4-28.9-23.4-32.2-26.9
				c-8.7-8.2-51.5-51.3-51.5-104.5c0-37.2,20.7-69.6,38.1-90.2c4.6-5.5,11.4-8.6,18.6-8.6c7.1,0,13.8,3.1,18.5,8.5l0.1,0.1
				c17.4,20.6,38.1,53,38.1,90.2c0,22-7.3,42.3-16.6,59.2c16.9-9.3,37.2-16.6,59.2-16.6c37.2,0,69.6,20.7,90.2,38.1l0.1,0.1
				c5.5,4.8,8.6,11.5,8.6,18.6c0,7.2-3.2,14-8.7,18.6C344.1,370.2,309.9,375.1,293,375.1z M193.7,134.7c-2.9,0-5.7,1.3-7.6,3.5
				c-28.7,34.1-34.7,62.8-34.7,81c0,48.4,42.2,89.5,47,94.1l0.5,0.5c4.5,4.8,45.7,47,94.1,47c34.8,0,65.7-21.8,81-34.7
				c2.3-1.9,3.6-4.6,3.6-7.6c0-2.9-1.3-5.7-3.6-7.7c-34.1-28.7-62.8-34.7-80.9-34.7c-37.2,0-69.7,24.4-85.8,38.9l-10.1-10.2
				c14.5-16,38.9-48.5,38.9-85.7c0-34.6-21.7-65.5-34.7-80.9C199.4,136,196.6,134.7,193.7,134.7z M389.5,278.6
				c-55.3,0-100.5-47.3-104.4-51.5c-6.3-5.8-51.6-49.5-51.6-104.5c0-16.9,5-51.1,38.1-90.2c4.5-5.4,11.4-8.7,18.5-8.7
				c7.3,0,14.1,3.2,18.7,8.7c33.1,39,38.1,73.2,38.1,90.2c0,22.1-7.3,42.3-16.5,59.1c16.8-9.2,37.1-16.5,59.1-16.5
				c16.9,0,51.1,4.9,90.3,38.1c5.4,4.6,8.7,11.5,8.7,18.5c0,7.3-3.2,14.1-8.7,18.7C440.7,273.7,406.5,278.6,389.5,278.6z
				 M290.2,38.1c-2.9,0-5.7,1.3-7.5,3.5c-13,15.4-34.8,46.2-34.8,81c0,50.5,45.2,92.4,47.1,94.1l0.5,0.5c0.4,0.5,42.7,47,94,47
				c34.9,0,65.7-21.8,81-34.7c2.3-1.9,3.6-4.7,3.6-7.7c0-2.8-1.4-5.7-3.6-7.6c-15.3-13-46.1-34.7-81-34.7c-16,0-48.5,5-85.8,38.8
				l-10.1-10.2c35.1-38.4,38.9-72.7,38.9-85.6c0-34.8-21.8-65.7-34.7-80.9C296,39.4,293.1,38.1,290.2,38.1z M382.3,154.1
				c-6.6,0-12.7-2.5-17.3-7.2c-5.1-5.1-7.7-12.2-7-19.3c4.2-51.1,24.9-78.7,36.8-90.6c26.2-26.3,63.8-34.6,90.7-36.9
				c0.7-0.1,1.3-0.1,1.9-0.1c6.4,0,12.7,2.6,17.2,7.2c5.2,5.1,7.8,12.1,7.1,19.4c-2.3,26.8-10.6,64.4-36.8,90.7
				c-26.3,26.3-63.8,34.5-90.8,36.8C383.6,154.1,382.9,154.1,382.3,154.1z M487.6,14.4c-0.3,0-0.5,0-0.8,0
				c-44.4,3.8-69,19.9-81.8,32.8c-24.6,24.5-31.1,61.7-32.7,81.7l0,0.1c-0.3,2.9,0.8,5.7,2.9,7.9c2,2.1,4.9,3.1,7.9,2.9
				c44.4-3.8,69-19.9,81.8-32.7c24.4-24.4,30.9-61.7,32.7-81.8c0.3-3-0.7-5.8-2.8-7.8l-0.1-0.1C492.8,15.5,490.2,14.4,487.6,14.4z"
				/>
		</g>
	</g>
</g>
</svg>
