<?xml version="1.0" encoding="utf-8"?>
<!-- Generator: Adobe Illustrator 18.0.0, SVG Export Plug-In . SVG Version: 6.00 Build 0)  -->
<!DOCTYPE svg PUBLIC "-//W3C//DTD SVG 1.1//EN" "http://www.w3.org/Graphics/SVG/1.1/DTD/svg11.dtd">
<svg version="1.1" id="Layer_1" xmlns="http://www.w3.org/2000/svg" xmlns:xlink="http://www.w3.org/1999/xlink" x="0px" y="0px"
	 viewBox="0 0 284.4 215.7" enable-background="new 0 0 284.4 215.7" xml:space="preserve">
<g>
	<path fill="#C4E6F2" d="M4.7,199c4.4,10.1,61.8-2.1,114.5-24.3c54.3-22.9,62.6-38.8,69.3-55.4c4.1-10.2-8-27.2-102.6,21.2
		C36.7,165.7,0.4,189,4.7,199z"/>
	<path fill="none" stroke="#000000" stroke-miterlimit="10" d="M278.9,11.2c0,0,2.7,4.9,2,5.4c-7.6,5.4-54.1,38.8-70.3,61.8
		c-19.8,28.1-3.4,58.1-47.3,84.5c-43.6,26.2-80.5,37.4-119.9,41.9c-34.8,4-39.6-2.3-39.2-7.3"/>
	<path fill="none" stroke="#000000" stroke-miterlimit="10" d="M277.8,11.4l-15.9-2.3c0,0-42.4,35-58.2,53.2
		c-16,18.4-17.1,34.6-23,38.8c-5.9,4.2-34.9,12.4-51.8,19.5c-49,20.5-130.3,64.2-124.3,77.9c4.2,9.7,55.5,1.5,105.3-19.7
		s63.1-29.8,75.3-50.1c8.7-14.5,6.5-34.2,23-57.4C220.4,53.8,277.8,11.4,277.8,11.4z"/>
</g>
</svg>
