<?xml version="1.0" encoding="utf-8"?>
<!-- Generator: Adobe Illustrator 18.0.0, SVG Export Plug-In . SVG Version: 6.00 Build 0)  -->
<!DOCTYPE svg PUBLIC "-//W3C//DTD SVG 1.1//EN" "http://www.w3.org/Graphics/SVG/1.1/DTD/svg11.dtd">
<svg version="1.1" id="Layer_1" xmlns="http://www.w3.org/2000/svg" xmlns:xlink="http://www.w3.org/1999/xlink" x="0px" y="0px"
	 viewBox="0 0 300 300" enable-background="new 0 0 300 300" xml:space="preserve">
<g>
	<path fill="#CCCCCC" d="M8.8,230.8c4,10.2,61.5,0.4,114.9-19.6c55-20.6,63.8-36.1,71.2-52.4c4.5-10-6.9-27.4-102.9,16.9
		C41.9,198.9,4.9,220.7,8.8,230.8z"/>
	<path fill="none" stroke="#000000" stroke-miterlimit="10" d="M289.2,54.9c0,0,2.5,4.9,1.8,5.5c-7.7,5-55.4,36.4-72.4,58.7
		c-20.8,27.2-5.7,57.7-50.4,82.2c-44.5,24.4-81.6,34-121,36.9c-34.8,2.6-39.3-3.9-38.7-8.8"/>
	<path fill="none" stroke="#000000" stroke-miterlimit="10" d="M288,55l-15.7-2.9c0,0-43.6,33.1-60.1,50.7
		c-16.6,17.7-18.4,33.7-24.5,37.7c-6.1,4-35.2,11-52.4,17.4C85.9,176.2,3.2,216.5,8.6,230.3c3.8,9.8,55.2,3.7,105.5-15.4
		s64-27.2,76.8-46.8c9.3-14,7.8-33.7,25.1-56.2C229.3,95,288,55,288,55z"/>
</g>
</svg>
