<?xml version="1.0" encoding="utf-8"?>
<!-- Generator: Adobe Illustrator 18.0.0, SVG Export Plug-In . SVG Version: 6.00 Build 0)  -->
<!DOCTYPE svg PUBLIC "-//W3C//DTD SVG 1.1//EN" "http://www.w3.org/Graphics/SVG/1.1/DTD/svg11.dtd">
<svg version="1.1" id="Layer_1" xmlns="http://www.w3.org/2000/svg" xmlns:xlink="http://www.w3.org/1999/xlink" x="0px" y="0px"
	 viewBox="0 0 250 250" enable-background="new 0 0 250 250" xml:space="preserve">
<g>
	<path fill="#FFED43" d="M4.3,205.4c3.9,8.9,54.3-1.8,100.7-21.4c47.7-20.1,55-34.1,60.9-48.7c3.6-9-7-23.9-90.2,18.6
		C32.3,176.1,0.4,196.6,4.3,205.4z"/>
	<path fill="none" stroke="#000000" stroke-miterlimit="10" d="M245.3,40.3c0,0,2.4,4.3,1.8,4.7c-6.7,4.7-47.6,34.1-61.8,54.3
		c-17.4,24.7-3,51.1-41.6,74.3c-38.3,23-70.8,32.9-105.4,36.8c-30.6,3.5-34.8-2-34.5-6.4"/>
	<path fill="none" stroke="#000000" stroke-miterlimit="10" d="M244.3,40.5l-14-2c0,0-37.3,30.8-51.2,46.8
		c-14.1,16.2-15,30.4-20.2,34.1c-5.2,3.7-30.7,10.9-45.5,17.1C70.3,154.5-1.1,192.9,4,204.9c3.7,8.5,48.8,1.3,92.6-17.3
		s55.5-26.2,66.2-44c7.6-12.7,5.7-30.1,20.2-50.5C193.8,77.8,244.3,40.5,244.3,40.5z"/>
</g>
</svg>
