<?xml version="1.0" encoding="utf-8"?>
<!-- Generator: Adobe Illustrator 18.0.0, SVG Export Plug-In . SVG Version: 6.00 Build 0)  -->
<!DOCTYPE svg PUBLIC "-//W3C//DTD SVG 1.1//EN" "http://www.w3.org/Graphics/SVG/1.1/DTD/svg11.dtd">
<svg version="1.1" id="Layer_1" xmlns="http://www.w3.org/2000/svg" xmlns:xlink="http://www.w3.org/1999/xlink" x="0px" y="0px"
	 viewBox="0 0 40.1 40.1" enable-background="new 0 0 40.1 40.1" xml:space="preserve">
<g>
	<g>
		<defs>
			<rect id="SVGID_1_" x="9.1" y="4.4" width="21.8" height="32.7"/>
		</defs>
		<clipPath id="SVGID_2_">
			<use xlink:href="#SVGID_1_"  overflow="visible"/>
		</clipPath>
		<path clip-path="url(#SVGID_2_)" d="M27.3,37H15.8c-0.8,0-1.4-0.6-1.4-1.3l-2.1-23.4c0-0.4,0.1-0.8,0.4-1.1
			c0.3-0.3,0.7-0.5,1.1-0.5h2.4l-0.7-3.9C15.3,6.3,15,6,14.7,6L9.4,5.2C9.2,5.2,9,5,9.1,4.8c0-0.2,0.2-0.4,0.5-0.4l5.2,0.7
			c0.7,0.1,1.3,0.7,1.4,1.5l0.8,4.1h12.4c0.4,0,0.8,0.2,1.1,0.5c0.3,0.3,0.4,0.7,0.4,1.1l-2.1,23.4C28.6,36.4,28,37,27.3,37L27.3,37
			z M13.6,17l1.7,18.6c0,0.3,0.3,0.6,0.6,0.6h11.4c0.3,0,0.6-0.2,0.6-0.6L29.5,17H13.6z M18,16.1h11.6l0.4-3.9c0-0.2,0-0.3-0.2-0.5
			c-0.1-0.1-0.3-0.2-0.4-0.2H17.1L18,16.1z M13.5,16.1h3.7l-0.9-4.6h-2.5c-0.2,0-0.3,0.1-0.4,0.2c-0.1,0.1-0.2,0.3-0.2,0.5
			L13.5,16.1z M20.4,18.9"/>
	</g>
</g>
</svg>
