<?xml version="1.0" encoding="utf-8"?>
<!-- Generator: Adobe Illustrator 18.0.0, SVG Export Plug-In . SVG Version: 6.00 Build 0)  -->
<!DOCTYPE svg PUBLIC "-//W3C//DTD SVG 1.1//EN" "http://www.w3.org/Graphics/SVG/1.1/DTD/svg11.dtd">
<svg version="1.1" id="Layer_1" xmlns="http://www.w3.org/2000/svg" xmlns:xlink="http://www.w3.org/1999/xlink" x="0px" y="0px"
	 viewBox="0 0 40.1 40.1" enable-background="new 0 0 40.1 40.1" xml:space="preserve">
<g>
	<g>
		<defs>
			<rect id="SVGID_1_" x="7.9" y="4.9" width="21.8" height="32.7"/>
		</defs>
		<clipPath id="SVGID_2_">
			<use xlink:href="#SVGID_1_"  overflow="visible"/>
		</clipPath>
	</g>
</g>
<path d="M31.5,11.5c-0.3-0.3-0.7-0.5-1.1-0.5H18l-0.8-4c-0.1-0.8-0.7-1.3-1.4-1.4L10.6,5c-0.2,0-0.4,0.1-0.5,0.4
	c0,0.2,0.1,0.4,0.4,0.5l5.2,0.7c0.4,0,0.7,0.3,0.7,0.8l0.7,3.8h-2.4c-0.4,0-0.8,0.2-1.1,0.5c-0.3,0.3-0.4,0.7-0.4,1.1l2.1,23
	c0.1,0.7,0.7,1.5,1.4,1.5h11.4c0.8,0,1.4-0.8,1.4-1.5l2.1-22.9C31.9,12.3,31.7,11.8,31.5,11.5z M14.2,12.9c0-0.2,0-0.4,0.2-0.5
	c0.1-0.1,0.3-0.3,0.4-0.3h2.5l0.9,5h-3.7L14.2,12.9z M28.9,35.8c0,0.3-0.3,0.2-0.6,0.2H16.9c-0.3,0-0.6,0.1-0.6-0.2l-1.7-17.8h16
	L28.9,35.8z M30.6,17.1H19l-0.9-5h12.2c0.2,0,0.3,0,0.4,0.1c0.1,0.1,0.2,0.6,0.2,0.8L30.6,17.1z"/>
<path fill="#74C8ED" d="M28.9,35.8c0,0.3-0.3,0.2-0.6,0.2H16.9c-0.3,0-0.6,0.1-0.6-0.2l-1.7-17.8h16L28.9,35.8z"/>
</svg>
