<?xml version="1.0" encoding="utf-8"?>
<!-- Generator: Adobe Illustrator 18.0.0, SVG Export Plug-In . SVG Version: 6.00 Build 0)  -->
<!DOCTYPE svg PUBLIC "-//W3C//DTD SVG 1.1//EN" "http://www.w3.org/Graphics/SVG/1.1/DTD/svg11.dtd">
<svg version="1.1" id="Layer_1" xmlns="http://www.w3.org/2000/svg" xmlns:xlink="http://www.w3.org/1999/xlink" x="0px" y="0px"
	 viewBox="0 0 40.1 40.1" enable-background="new 0 0 40.1 40.1" xml:space="preserve">
<g>
	<path d="M10.4,35.9C10.1,35.9,9.9,36,9.6,36c-0.6,0-1.1-0.2-1.5-0.6c-0.4-0.5-0.6-1.1-0.6-1.7c-0.6,0.1-1.2-0.1-1.7-0.5
		c-0.4-0.3-0.7-0.8-0.8-1.4c-0.1-0.6,0.1-1.3,0.5-1.8c0.5-0.6,1.2-0.9,1.9-0.9c0.4,0,0.9,0.1,1.4,0.5l4.6-5c0.2-0.2,1,0.5,0.8,0.7
		l-4.9,5.4c-0.1,0.1-0.3,0.2-0.4,0.2c-0.2,0-0.3-0.1-0.4-0.2c-0.3-0.3-0.7-0.5-1-0.5c-0.4,0-0.8,0.2-1.1,0.5
		c-0.2,0.2-0.3,0.6-0.3,0.9c0,0.3,0.2,0.5,0.3,0.7c0.5,0.4,1.2,0.3,1.7-0.1C8.2,32,8.4,32,8.6,32c0.2,0,0.4,0.2,0.4,0.4
		c0.1,0.2,0,0.4-0.1,0.6c-0.4,0.5-0.4,1.2,0,1.7c0.2,0.2,0.4,0.3,0.7,0.3c0.3,0,0.7-0.1,0.9-0.4c0.3-0.3,0.5-0.7,0.4-1.1
		c0-0.4-0.2-0.7-0.6-1c-0.1-0.1-0.2-0.2-0.2-0.4c0-0.2,0-0.3,0.1-0.4l4.9-5.4c0.2-0.2,1,0.5,0.8,0.7l-4.6,5c0.4,0.5,0.6,1,0.6,1.4
		c0.1,0.7-0.2,1.4-0.8,2C11.1,35.6,10.7,35.8,10.4,35.9z"/>
	<path fill="none" stroke="#000000" stroke-width="0.75" stroke-miterlimit="10" d="M22.4,25.8L22.4,25.8c-2.5,0.8-5.6,1.3-6.3,0.7
		c-0.1-0.1-0.3-0.3-0.6-0.4c-0.9-0.6-2-1.4-1.9-2.4c0.4-6,3.3-8.1,4.3-8.7c-0.2-2.8,2.6-7.6,6.8-8.9c0.2-0.1,0.4-0.1,0.6-0.2
		c3.5-0.8,7.4,0.8,9.2,3.8c1.7,2.8,1.1,6.2-1.5,9.3C29.6,22.9,25.4,24.8,22.4,25.8z"/>
</g>
</svg>
