<?xml version="1.0" encoding="utf-8"?>
<!-- Generator: Adobe Illustrator 18.0.0, SVG Export Plug-In . SVG Version: 6.00 Build 0)  -->
<!DOCTYPE svg PUBLIC "-//W3C//DTD SVG 1.1//EN" "http://www.w3.org/Graphics/SVG/1.1/DTD/svg11.dtd">
<svg version="1.1" id="Layer_1" xmlns="http://www.w3.org/2000/svg" xmlns:xlink="http://www.w3.org/1999/xlink" x="0px" y="0px"
	 viewBox="0 0 40.1 40.1" enable-background="new 0 0 40.1 40.1" xml:space="preserve">
<g>
	<path d="M10.1,36.7c-0.2,0.1-0.5,0.1-0.8,0.1c-0.6,0-1.1-0.2-1.5-0.6c-0.4-0.5-0.6-1.1-0.6-1.7c-0.6,0.1-1.2-0.1-1.7-0.5
		c-0.4-0.3-0.7-0.8-0.8-1.4c-0.1-0.6,0.1-1.3,0.5-1.8C5.8,30.3,6.5,30,7.2,30c0.4,0,0.9,0.1,1.4,0.5l4.6-5c0.2-0.2,0.6-0.2,0.8,0
		c0.2,0.2,0.2,0.6,0,0.8l-4.9,5.4c-0.1,0.1-0.3,0.2-0.4,0.2c-0.2,0-0.3-0.1-0.4-0.2c-0.3-0.3-0.7-0.5-1-0.5c-0.4,0-0.8,0.2-1.1,0.5
		c-0.2,0.2-0.3,0.6-0.3,0.9c0,0.3,0.2,0.5,0.3,0.7c0.5,0.4,1.2,0.3,1.7-0.1c0.1-0.1,0.3-0.2,0.5-0.2c0.2,0,0.4,0.2,0.4,0.4
		c0.1,0.2,0,0.4-0.1,0.6c-0.4,0.5-0.4,1.2,0,1.7c0.2,0.2,0.4,0.3,0.7,0.3c0.3,0,0.7-0.1,0.9-0.4c0.3-0.3,0.5-0.7,0.4-1.1
		c0-0.4-0.2-0.7-0.6-1C10,33.2,9.9,33,9.9,32.9c0-0.2,0-0.3,0.1-0.4l4.9-5.4c0.2-0.2,0.6-0.2,0.8,0c0.2,0.2,0.2,0.6,0,0.8l-4.6,5
		c0.4,0.5,0.6,1,0.6,1.4c0.1,0.7-0.2,1.4-0.8,2C10.8,36.4,10.5,36.6,10.1,36.7z"/>
	<path fill="#F2A927" stroke="#000000" stroke-width="0.75" stroke-miterlimit="10" d="M22.2,26.6L22.2,26.6
		c-2.5,0.8-5.6,1.3-6.3,0.7c-0.1-0.1-0.3-0.3-0.6-0.4c-0.9-0.6-2-1.4-1.9-2.4c0.4-6,3.3-8.1,4.3-8.7c-0.2-2.8,2.6-7.6,6.8-8.9
		c0.2-0.1,0.4-0.1,0.6-0.2c3.5-0.8,7.4,0.8,9.2,3.8c1.7,2.8,1.1,6.2-1.5,9.3C29.4,23.7,25.2,25.7,22.2,26.6z"/>
</g>
</svg>
