<?xml version="1.0" encoding="utf-8"?>
<!-- Generator: Adobe Illustrator 18.0.0, SVG Export Plug-In . SVG Version: 6.00 Build 0)  -->
<!DOCTYPE svg PUBLIC "-//W3C//DTD SVG 1.1//EN" "http://www.w3.org/Graphics/SVG/1.1/DTD/svg11.dtd">
<svg version="1.1" id="Layer_1" xmlns="http://www.w3.org/2000/svg" xmlns:xlink="http://www.w3.org/1999/xlink" x="0px" y="0px"
	 viewBox="0 0 40.1 40.1" enable-background="new 0 0 40.1 40.1" xml:space="preserve">
<g>
	<path fill="#F4D451" stroke="#000000" stroke-width="0.75" stroke-miterlimit="10" d="M21.9,30c-0.9,0.7-2.5,1.8-4.3,1.8
		c-1.8,0-3.4-1.1-4.3-1.8l-3.5,3.5c-0.4,0.4-1,0.4-1.4,0c-0.4-0.4-0.3-1,0-1.4l3.5-3.5c-0.7-0.9-1.9-2.5-1.9-4.3
		c0-1.8,1.1-3.4,1.8-4.3c0.2-0.2,0.4-0.3,0.7-0.3s0.5,0.1,0.7,0.3c0.7,0.9,1.8,2.5,1.8,4.3c0,2-1.3,3.8-2.1,4.5c0.8-0.7,2.5-2,4.5-2
		c1.8,0,3.4,1.1,4.3,1.8c0.2,0.2,0.3,0.4,0.3,0.7S22.1,29.9,21.9,30L21.9,30z M26.8,25.2c-0.9,0.7-2.5,1.8-4.3,1.8
		c-2.7,0-4.9-2.4-5-2.5c-0.1-0.1-2.5-2.3-2.5-5c0-1.8,1.1-3.4,1.8-4.3c0.2-0.2,0.4-0.3,0.7-0.3s0.5,0.1,0.7,0.3
		c0.7,0.9,1.8,2.5,1.8,4.3c0,2-1.3,3.8-2.1,4.6c0.8-0.7,2.5-2,4.6-2c1.8,0,3.4,1.1,4.3,1.8c0.2,0.2,0.3,0.4,0.3,0.7
		S26.9,25,26.8,25.2L26.8,25.2z M31.6,20.3c-0.9,0.7-2.5,1.8-4.3,1.8c-2.7,0-4.9-2.4-5-2.5c-0.1-0.1-2.5-2.3-2.5-5
		c0-1.8,1.1-3.4,1.8-4.3c0.2-0.2,0.4-0.3,0.7-0.3c0.3,0,0.5,0.1,0.7,0.3c0.7,0.9,1.8,2.5,1.8,4.3c0,2-1.3,3.8-2.1,4.5
		c0.8-0.7,2.5-2,4.6-2c1.8,0,3.4,1.1,4.3,1.8c0.2,0.2,0.3,0.4,0.3,0.7C31.9,19.9,31.8,20.2,31.6,20.3L31.6,20.3z M31.3,14.2
		c-1.3,1.3-3.2,1.6-4.3,1.7c-0.3,0-0.5-0.1-0.7-0.2c-0.2-0.2-0.3-0.4-0.2-0.7c0.1-1.1,0.4-3,1.7-4.3C29.1,9.3,31,9,32.2,8.9
		c0.2,0,0.5,0.1,0.7,0.3c0.2,0.2,0.3,0.4,0.2,0.7C33,11,32.6,12.9,31.3,14.2L31.3,14.2z"/>
</g>
</svg>
