<?xml version="1.0" encoding="utf-8"?>
<!-- Generator: Adobe Illustrator 18.0.0, SVG Export Plug-In . SVG Version: 6.00 Build 0)  -->
<!DOCTYPE svg PUBLIC "-//W3C//DTD SVG 1.1//EN" "http://www.w3.org/Graphics/SVG/1.1/DTD/svg11.dtd">
<svg version="1.1" id="Layer_1" xmlns="http://www.w3.org/2000/svg" xmlns:xlink="http://www.w3.org/1999/xlink" x="0px" y="0px"
	 viewBox="0 0 40.1 40.1" enable-background="new 0 0 40.1 40.1" xml:space="preserve">
<g>
	
		<line fill="none" stroke="#000000" stroke-width="0.75" stroke-linecap="round" stroke-linejoin="round" stroke-miterlimit="10" x1="11" y1="24.4" x2="11" y2="24.4"/>
	
		<line fill="none" stroke="#000000" stroke-width="0.75" stroke-linecap="round" stroke-linejoin="round" stroke-miterlimit="10" x1="14.1" y1="29.3" x2="14.1" y2="29.3"/>
	
		<line fill="none" stroke="#000000" stroke-width="0.75" stroke-linecap="round" stroke-linejoin="round" stroke-miterlimit="10" x1="16.2" y1="24.1" x2="16.2" y2="24.1"/>
	
		<line fill="none" stroke="#000000" stroke-width="0.75" stroke-linecap="round" stroke-linejoin="round" stroke-miterlimit="10" x1="24.9" y1="28.1" x2="24.9" y2="28.1"/>
	
		<line fill="none" stroke="#000000" stroke-width="0.75" stroke-linecap="round" stroke-linejoin="round" stroke-miterlimit="10" x1="14.4" y1="19.1" x2="14.4" y2="19.1"/>
	
		<line fill="none" stroke="#000000" stroke-width="0.75" stroke-linecap="round" stroke-linejoin="round" stroke-miterlimit="10" x1="26.2" y1="23.6" x2="26.2" y2="23.6"/>
	
		<line fill="none" stroke="#000000" stroke-width="0.75" stroke-linecap="round" stroke-linejoin="round" stroke-miterlimit="10" x1="20.9" y1="22.9" x2="20.9" y2="22.9"/>
	
		<line fill="none" stroke="#000000" stroke-width="0.75" stroke-linecap="round" stroke-linejoin="round" stroke-miterlimit="10" x1="14.7" y1="14.2" x2="14.7" y2="14.2"/>
	
		<line fill="none" stroke="#000000" stroke-width="0.75" stroke-linecap="round" stroke-linejoin="round" stroke-miterlimit="10" x1="20.7" y1="17.9" x2="20.7" y2="17.9"/>
	
		<line fill="none" stroke="#000000" stroke-width="0.75" stroke-linecap="round" stroke-linejoin="round" stroke-miterlimit="10" x1="30.2" y1="20.7" x2="30.2" y2="20.7"/>
	
		<line fill="none" stroke="#000000" stroke-width="0.75" stroke-linecap="round" stroke-linejoin="round" stroke-miterlimit="10" x1="19.9" y1="27.9" x2="19.9" y2="27.9"/>
	<g>
		
			<path fill="none" stroke="#000000" stroke-width="0.75" stroke-linecap="round" stroke-linejoin="round" stroke-miterlimit="10" d="
			M20.8,10.8c0,0-1.9,0.2-3.6,2.7c0,0,4.4,0.8,6.6-0.2c0,0,1.1,4.3,2.5,5.7c0,0,1.4-1.6,1-4.8l5.8,3.2c0,0-2.8-5.1-7.8-6.5
			c0,0-2.6-3.7-8.6-3.7C16.7,7.4,19.3,9.4,20.8,10.8z"/>
		
			<path fill="none" stroke="#000000" stroke-width="0.75" stroke-linecap="round" stroke-linejoin="round" stroke-miterlimit="10" d="
			M29.7,7.5c0,0-2.9,0.6-4.6,3.8"/>
	</g>
	
		<path fill="none" stroke="#000000" stroke-width="0.75" stroke-linecap="round" stroke-linejoin="round" stroke-miterlimit="10" d="
		M18.3,8.6c0,0-4.5,0.1-6.8,5.4c0,0-4.9,15.2,0.7,18.7c4.4,2.8,14.4-3.7,17.4-7.2c2.5-2.9,3-6.8,1.7-8.9"/>
</g>
</svg>
