<?xml version="1.0" encoding="utf-8"?>
<!-- Generator: Adobe Illustrator 18.0.0, SVG Export Plug-In . SVG Version: 6.00 Build 0)  -->
<!DOCTYPE svg PUBLIC "-//W3C//DTD SVG 1.1//EN" "http://www.w3.org/Graphics/SVG/1.1/DTD/svg11.dtd">
<svg version="1.1" id="Layer_1" xmlns="http://www.w3.org/2000/svg" xmlns:xlink="http://www.w3.org/1999/xlink" x="0px" y="0px"
	 viewBox="0 0 40.1 40.1" enable-background="new 0 0 40.1 40.1" xml:space="preserve">
<g>
	
		<path fill="#ED6058" stroke="#2B2B2B" stroke-width="0.75" stroke-linecap="round" stroke-linejoin="round" stroke-miterlimit="10" d="
		M32,16c1.4,2.1,0.8,6-1.7,8.9c-3.1,3.6-13,10-17.4,7.2c-5.6-3.5-0.7-18.7-0.7-18.7C14.5,8.1,18.5,8,18.5,8c1.4,0,0.8-0.6,2.7,0.5
		C25.3,10.9,32,16,32,16z"/>
	<g>
		
			<path fill="#72D572" stroke="#006837" stroke-width="0.5" stroke-linecap="round" stroke-linejoin="round" stroke-miterlimit="10" d="
			M21.6,10.2c0,0-1.9,0.2-3.6,2.7c0,0,4.4,0.8,6.6-0.2c0,0,1.1,4.3,2.5,5.7c0,0,1.4-1.6,1-4.8l5.8,3.2c0,0-2.8-5.1-7.8-6.5
			c0,0-2.6-3.7-8.6-3.7C17.5,6.7,20.1,8.8,21.6,10.2z"/>
		<path fill="none" stroke="#795548" stroke-linecap="round" stroke-linejoin="round" stroke-miterlimit="10" d="M30.5,6.9
			c0,0-2.9,0.6-4.6,3.8"/>
	</g>
	
		<line fill="none" stroke="#FFD54F" stroke-linecap="round" stroke-linejoin="round" stroke-miterlimit="10" x1="11.8" y1="23.8" x2="11.8" y2="23.8"/>
	
		<line fill="none" stroke="#FFD54F" stroke-width="1.1" stroke-linecap="round" stroke-linejoin="round" stroke-miterlimit="10" x1="14.9" y1="28.6" x2="14.9" y2="28.6"/>
	
		<line fill="none" stroke="#FFD54F" stroke-linecap="round" stroke-linejoin="round" stroke-miterlimit="10" x1="16.9" y1="23.4" x2="16.9" y2="23.4"/>
	
		<line fill="none" stroke="#FFD54F" stroke-width="0.9" stroke-linecap="round" stroke-linejoin="round" stroke-miterlimit="10" x1="25.6" y1="27.5" x2="25.6" y2="27.5"/>
	
		<line fill="none" stroke="#FFD54F" stroke-width="0.85" stroke-linecap="round" stroke-linejoin="round" stroke-miterlimit="10" x1="15.2" y1="18.4" x2="15.2" y2="18.4"/>
	
		<line fill="none" stroke="#FFD54F" stroke-linecap="round" stroke-linejoin="round" stroke-miterlimit="10" x1="27" y1="23" x2="27" y2="23"/>
	
		<line fill="none" stroke="#FFD54F" stroke-width="1.15" stroke-linecap="round" stroke-linejoin="round" stroke-miterlimit="10" x1="21.6" y1="22.3" x2="21.6" y2="22.3"/>
	
		<line fill="none" stroke="#FFD54F" stroke-width="1.15" stroke-linecap="round" stroke-linejoin="round" stroke-miterlimit="10" x1="15.5" y1="13.5" x2="15.5" y2="13.5"/>
	
		<line fill="none" stroke="#FFD54F" stroke-linecap="round" stroke-linejoin="round" stroke-miterlimit="10" x1="21.4" y1="17.3" x2="21.4" y2="17.3"/>
	
		<line fill="none" stroke="#FFD54F" stroke-linecap="round" stroke-linejoin="round" stroke-miterlimit="10" x1="30.9" y1="20.1" x2="30.9" y2="20.1"/>
	
		<line fill="none" stroke="#FFD54F" stroke-width="0.85" stroke-linecap="round" stroke-linejoin="round" stroke-miterlimit="10" x1="20.7" y1="27.2" x2="20.7" y2="27.2"/>
</g>
</svg>
