<?xml version="1.0" encoding="utf-8"?>
<!-- Generator: Adobe Illustrator 18.0.0, SVG Export Plug-In . SVG Version: 6.00 Build 0)  -->
<!DOCTYPE svg PUBLIC "-//W3C//DTD SVG 1.1//EN" "http://www.w3.org/Graphics/SVG/1.1/DTD/svg11.dtd">
<svg version="1.1" id="Layer_1" xmlns="http://www.w3.org/2000/svg" xmlns:xlink="http://www.w3.org/1999/xlink" x="0px" y="0px"
	 viewBox="0 0 40.1 40.1" enable-background="new 0 0 40.1 40.1" xml:space="preserve">
<g>
	<g>
		<defs>
			<rect id="SVGID_1_" x="8.1" y="4.6" width="23.4" height="31.6"/>
		</defs>
		<clipPath id="SVGID_2_">
			<use xlink:href="#SVGID_1_"  overflow="visible"/>
		</clipPath>
		<path clip-path="url(#SVGID_2_)" d="M30.1,32.6c1.8-5,1.8-19.4,0-24.4l0.5-2.9c0-0.2,0-0.4-0.1-0.5c-0.1-0.1-0.3-0.2-0.5-0.2H9.6
			c-0.2,0-0.4,0.1-0.5,0.2C9,5,8.9,5.2,9,5.3l0.5,2.9c-1.8,5-1.8,19.4,0,24.4L9,35.5c0,0.2,0,0.4,0.1,0.5c0.1,0.1,0.3,0.2,0.5,0.2
			H30c0.3,0,0.6-0.3,0.6-0.6c0-0.1,0-0.1,0-0.2L30.1,32.6z M29.3,5.9l-0.3,1.8H10.6l-0.3-1.8H29.3z M10.6,8.9H29
			c1.6,4.8,1.6,18.2,0,23.1H10.6C8.9,27.1,8.9,13.7,10.6,8.9L10.6,8.9z M10.3,35l0.3-1.8h18.3l0.3,1.8H10.3z M10.3,35"/>
	</g>
	<path d="M13.3,25.4C13.3,25.4,13.3,25.4,13.3,25.4C13.4,25.4,13.4,25.4,13.3,25.4c0.1,0,0.1,0,0.2,0c0.4,0,1-0.2,2-0.5
		c0.9-0.3,2-0.6,2.7-0.7c0.1,0,0.1,0,0.2,0c0.6,0,1.1,0.1,1.7,0.3c0.7,0.2,1.5,0.4,2.5,0.4c0.8,0,2.8-0.1,4-1.5
		c0.8-0.8,1.1-1.8,1.1-3.1c-0.1-3.5-3.9-5-5.8-5c-2.9,0-4.5,2.4-5,3.9c-3.9,0.6-5.2,3.7-5.2,4.5C11.8,24.6,12.4,25.2,13.3,25.4
		L13.3,25.4z M22,16.6c1.3,0,4.4,1.1,4.5,3.8c0,0.9-0.2,1.7-0.7,2.2c-1,1-2.7,1.1-3.2,1.1c-0.8,0-1.5-0.2-2.2-0.3
		c-0.6-0.1-1.3-0.3-2-0.3c-0.1,0-0.2,0-0.3,0c-0.5,0-1.1,0.2-1.8,0.3c1-1.4,1.5-3.1,1.6-3.4c0,0,0,0,0,0c0,0,0,0,0,0
		C18.1,19.8,19,16.6,22,16.6L22,16.6z M16.5,20.6c-0.6,1.4-1.7,3.4-3,3.6c-0.4-0.1-0.4-0.3-0.4-0.4C13.1,23.4,13.9,21.3,16.5,20.6
		L16.5,20.6z M16.5,20.6"/>
</g>
<path fill="#FFFFFF" d="M21.9,15.8c1.5,0,5.2,1.3,5.3,4.5c0,1.1-0.2,2-0.8,2.6c-1.2,1.2-3.1,1.3-3.7,1.3c-1,0-1.8-0.2-2.6-0.4
	c-0.7-0.2-1.5-0.4-2.3-0.4c-0.1,0-0.2,0-0.3,0c-0.6,0-1.3,0.2-2.1,0.4c1.2-1.7,1.8-3.7,1.9-4.1c0,0,0,0,0,0c0,0,0,0,0,0
	C17.3,19.7,18.5,15.8,21.9,15.8L21.9,15.8z"/>
<path fill="#FFFFFF" d="M16.8,19.9c-0.8,1.8-2.2,4.4-3.9,4.6c-0.5-0.1-0.5-0.4-0.5-0.5C12.4,23.6,13.4,20.8,16.8,19.9L16.8,19.9z"/>
</svg>
