<?xml version="1.0" encoding="utf-8"?>
<!-- Generator: Adobe Illustrator 18.0.0, SVG Export Plug-In . SVG Version: 6.00 Build 0)  -->
<!DOCTYPE svg PUBLIC "-//W3C//DTD SVG 1.1//EN" "http://www.w3.org/Graphics/SVG/1.1/DTD/svg11.dtd">
<svg version="1.1" id="Layer_1" xmlns="http://www.w3.org/2000/svg" xmlns:xlink="http://www.w3.org/1999/xlink" x="0px" y="0px"
	 viewBox="0 0 40.1 40.1" enable-background="new 0 0 40.1 40.1" xml:space="preserve">
<path fill="#5AC7ED" d="M11.3,8.8h18.5c1.6,4.8,1.6,18.2,0,23.1H11.3C9.7,27.1,9.7,13.7,11.3,8.8L11.3,8.8z"/>
<g>
	<g>
		<defs>
			<rect id="SVGID_1_" x="8.8" y="4.5" width="23.4" height="31.6"/>
		</defs>
		<clipPath id="SVGID_2_">
			<use xlink:href="#SVGID_1_"  overflow="visible"/>
		</clipPath>
		<path clip-path="url(#SVGID_2_)" d="M30.8,32.6c1.8-5,1.8-19.4,0-24.4l0.5-2.9c0-0.2,0-0.4-0.1-0.5c-0.1-0.1-0.3-0.2-0.5-0.2H10.3
			c-0.2,0-0.4,0.1-0.5,0.2C9.7,4.9,9.6,5.1,9.7,5.3l0.5,2.9c-1.8,5-1.8,19.4,0,24.4l-0.5,2.9c0,0.2,0,0.4,0.1,0.5
			c0.1,0.1,0.3,0.2,0.5,0.2h20.5c0.3,0,0.6-0.3,0.6-0.6c0-0.1,0-0.1,0-0.2L30.8,32.6z M30,5.8l-0.3,1.8H11.4L11,5.8H30z M11.3,8.8
			h18.5c1.6,4.8,1.6,18.2,0,23.1H11.3C9.7,27.1,9.7,13.6,11.3,8.8L11.3,8.8z M11,34.9l0.3-1.8h18.3l0.3,1.8H11z M11,34.9"/>
	</g>
	<path fill="#966000" d="M14.1,25.3C14.1,25.3,14.1,25.3,14.1,25.3C14.1,25.3,14.1,25.3,14.1,25.3c0.1,0,0.1,0,0.2,0
		c0.4,0,1-0.2,2-0.5c0.9-0.3,2-0.6,2.7-0.7c0.1,0,0.1,0,0.2,0c0.6,0,1.1,0.1,1.7,0.3c0.7,0.2,1.5,0.4,2.5,0.4c0.8,0,2.8-0.1,4-1.5
		c0.8-0.8,1.1-1.8,1.1-3.1c-0.1-3.5-3.9-5-5.8-5c-2.9,0-4.5,2.4-5,3.9c-3.9,0.6-5.2,3.7-5.2,4.5C12.5,24.5,13.1,25.2,14.1,25.3
		L14.1,25.3z M22.7,16.5c1.3,0,4.4,1.1,4.5,3.8c0,0.9-0.2,1.7-0.7,2.2c-1,1-2.7,1.1-3.2,1.1c-0.8,0-1.5-0.2-2.2-0.3
		c-0.6-0.1-1.3-0.3-2-0.3c-0.1,0-0.2,0-0.3,0c-0.5,0-1.1,0.2-1.8,0.3c1-1.4,1.5-3.1,1.6-3.4c0,0,0,0,0,0c0,0,0,0,0,0
		C18.8,19.7,19.8,16.5,22.7,16.5L22.7,16.5z M17.2,20.5c-0.6,1.4-1.7,3.4-3,3.6c-0.4-0.1-0.4-0.3-0.4-0.4
		C13.8,23.3,14.6,21.2,17.2,20.5L17.2,20.5z M17.2,20.5"/>
</g>
<path fill="#FFD54F" d="M22.7,15.8c1.5,0,5.2,1.3,5.3,4.5c0,1.1-0.2,2-0.8,2.6c-1.2,1.2-3.1,1.3-3.7,1.3c-1,0-1.8-0.2-2.6-0.4
	c-0.7-0.2-1.5-0.4-2.3-0.4c-0.1,0-0.2,0-0.3,0c-0.6,0-1.3,0.2-2.1,0.4c1.2-1.7,1.8-3.7,1.9-4.1c0,0,0,0,0,0c0,0,0,0,0,0
	C18.1,19.7,19.2,15.8,22.7,15.8L22.7,15.8z"/>
<path fill="#FFD54F" d="M17.6,19.9c-0.8,1.8-2.2,4.4-3.9,4.6c-0.5-0.1-0.5-0.4-0.5-0.5C13.1,23.5,14.2,20.7,17.6,19.9L17.6,19.9z"/>
<polygon fill="#5AC7ED" points="30,5.8 29.7,7.6 11.4,7.6 11,5.8 "/>
<polygon fill="#5AC7ED" points="11,34.9 11.4,33.1 29.7,33.1 30,34.9 "/>
</svg>
