<?xml version="1.0" encoding="utf-8"?>
<!-- Generator: Adobe Illustrator 18.0.0, SVG Export Plug-In . SVG Version: 6.00 Build 0)  -->
<!DOCTYPE svg PUBLIC "-//W3C//DTD SVG 1.1//EN" "http://www.w3.org/Graphics/SVG/1.1/DTD/svg11.dtd">
<svg version="1.1" id="Layer_1" xmlns="http://www.w3.org/2000/svg" xmlns:xlink="http://www.w3.org/1999/xlink" x="0px" y="0px"
	 viewBox="0 0 40.1 40.1" enable-background="new 0 0 40.1 40.1" xml:space="preserve">
<g>
	<g>
		<path d="M16.8,36.6h-9c-1,0-1.7-0.8-1.7-1.7V20.7c0-2.8,0.2-4,1.6-7c1.1-2.5,1.4-5.3,1.5-6L8.8,7.3c0,0,0,0,0,0l0,0l0,0l0,0
			c0,0,0,0,0,0c0,0,0,0,0,0l0,0l0,0l0,0l0,0l0,0v0l0,0v0C8.7,7.2,8.6,7.1,8.6,7V4.7c0-0.2,0.2-0.4,0.4-0.4h6.5
			c0.2,0,0.4,0.2,0.4,0.4V7c0,0.1,0,0.2-0.1,0.3c0,0,0,0,0,0l0,0l0,0l0,0v0c0,0,0,0,0,0l0,0l0,0c0,0,0,0,0,0l0,0v0l0,0l0,0l0,0
			c0,0,0,0,0,0l-0.3,0.3c0.1,0.7,0.3,3.5,1.5,6c1.4,3.1,1.6,4.2,1.6,7v14.2C18.5,35.8,17.8,36.6,16.8,36.6L16.8,36.6z M9.2,11.7
			C9,12.4,8.7,13.2,8.4,14c-1.3,2.9-1.5,4-1.5,6.7v14.2c0,0.5,0.4,0.9,0.9,0.9h9c0.5,0,0.9-0.4,0.9-0.9V20.7c0-2.7-0.2-3.8-1.5-6.7
			c-0.3-0.8-0.6-1.6-0.8-2.3L9.2,11.7C9.3,11.7,9.2,11.7,9.2,11.7L9.2,11.7z M9.4,10.8h5.8c-0.4-1.8-0.5-3.3-0.5-3.4c0,0,0,0,0,0
			H9.9c0,0,0,0,0,0C9.9,7.6,9.8,9,9.4,10.8L9.4,10.8z M9.5,6.6h5.7V5.1H9.5V6.6z M8.4,34.1c-0.2,0-0.4-0.2-0.4-0.4V22.7
			c0-0.2,0.2-0.4,0.4-0.4c0.2,0,0.4,0.2,0.4,0.4v10.9C8.8,33.9,8.6,34.1,8.4,34.1L8.4,34.1z M8.4,34.1"/>
	</g>
	<g>
		<g>
			<defs>
				<rect id="SVGID_1_" x="19.7" y="26.2" width="15.2" height="9.8"/>
			</defs>
			<clipPath id="SVGID_2_">
				<use xlink:href="#SVGID_1_"  overflow="visible"/>
			</clipPath>
			<path clip-path="url(#SVGID_2_)" d="M33.5,36H19.9c-0.1,0-0.1,0-0.2-0.1c0,0-0.1-0.1-0.1-0.2l0.1-2.7c0-0.1,0-0.1,0.1-0.1
				c0,0,0,0,0,0l0,0l0,0c0,0,0.1-0.1,0.1-0.1h0h0c0.1,0,2.3-0.2,2.3-2.1c0-0.6-0.2-1-0.5-1.4c-0.6-0.6-1.6-0.6-1.6-0.6
				c0,0-0.1,0-0.1,0c-0.1,0-0.1-0.1-0.1-0.2l0-1c0,0,0,0,0-0.1v0h0c0,0,0-0.1,0.1-0.1l0,0c0,0,0,0,0.1-0.1c0,0,0,0,0.1,0l10.7-1.1
				c0,0,0.1,0,0.1,0l2.9,1.1c0,0,0,0,0,0c0,0,0.1,0,0.1,0.1c0,0,0,0,0,0c0,0,0,0,0,0c0,0.1,0.7,1.9,0.7,4.3c0,2.4-1.1,4.1-1.1,4.2
				C33.7,36,33.6,36,33.5,36L33.5,36z M25,35.6h8.4c0.2-0.4,1-1.9,1-3.8c0-1.9-0.5-3.5-0.6-4H20.5l0,0.5c0.2,0,0.4-0.1,0.6-0.1
				c1.5,0,2.7,1.2,2.7,2.7c0,1.5-1.2,2.7-2.7,2.7c-0.3,0-0.5,0-0.8-0.1l-0.1,2.2h2.2C23.3,35.6,24.1,35.6,25,35.6L25,35.6z
				 M21.7,28.7c0.1,0.1,0.3,0.2,0.4,0.3c0.4,0.4,0.6,1,0.6,1.7c0,1-0.5,1.8-1.4,2.2C21.3,33,21.1,33,21,33c1.2,0,2.2-1,2.2-2.2
				C23.3,29.8,22.6,29,21.7,28.7L21.7,28.7z M24.6,27.3h8.1l-1.7-0.7L24.6,27.3z M31.6,35c-0.6,0-1-0.5-1-1c0-0.6,0.5-1,1-1
				c0.6,0,1,0.5,1,1C32.6,34.5,32.1,35,31.6,35L31.6,35z M31.6,33.4c-0.3,0-0.6,0.3-0.6,0.6c0,0.3,0.3,0.6,0.6,0.6
				c0.3,0,0.6-0.3,0.6-0.6C32.2,33.6,31.9,33.4,31.6,33.4L31.6,33.4z M28.3,33.7c-0.7,0-1.3-0.6-1.3-1.3c0-0.7,0.6-1.3,1.3-1.3
				c0.7,0,1.3,0.6,1.3,1.3C29.6,33.1,29,33.7,28.3,33.7L28.3,33.7z M28.3,31.6c-0.5,0-0.9,0.4-0.9,0.9c0,0.5,0.4,0.9,0.9,0.9
				s0.9-0.4,0.9-0.9C29.1,32,28.7,31.6,28.3,31.6L28.3,31.6z M32.7,30.7c-0.6,0-1.1-0.5-1.1-1.1c0-0.6,0.5-1.1,1.1-1.1
				c0.6,0,1.1,0.5,1.1,1.1C33.7,30.3,33.3,30.7,32.7,30.7L32.7,30.7z M32.7,29.1c-0.3,0-0.6,0.3-0.6,0.6c0,0.3,0.3,0.6,0.6,0.6
				c0.3,0,0.6-0.3,0.6-0.6C33.3,29.3,33,29.1,32.7,29.1L32.7,29.1z M25.2,30.3c-0.5,0-0.9-0.4-0.9-0.9c0-0.5,0.4-0.9,0.9-0.9
				c0.5,0,0.9,0.4,0.9,0.9C26.1,29.9,25.7,30.3,25.2,30.3L25.2,30.3z M25.2,28.9c-0.3,0-0.5,0.2-0.5,0.5s0.2,0.5,0.5,0.5
				c0.3,0,0.5-0.2,0.5-0.5S25.4,28.9,25.2,28.9L25.2,28.9z M25.2,28.9"/>
		</g>
	</g>
	<g>
		<g>
			<defs>
				<rect id="SVGID_3_" x="14.8" y="23.7" width="20.3" height="13.2"/>
			</defs>
			<clipPath id="SVGID_4_">
				<use xlink:href="#SVGID_3_"  overflow="visible"/>
			</clipPath>
		</g>
	</g>
</g>
</svg>
