<?xml version="1.0" encoding="utf-8"?>
<!-- Generator: Adobe Illustrator 18.0.0, SVG Export Plug-In . SVG Version: 6.00 Build 0)  -->
<!DOCTYPE svg PUBLIC "-//W3C//DTD SVG 1.1//EN" "http://www.w3.org/Graphics/SVG/1.1/DTD/svg11.dtd">
<svg version="1.1" id="Layer_1" xmlns="http://www.w3.org/2000/svg" xmlns:xlink="http://www.w3.org/1999/xlink" x="0px" y="0px"
	 viewBox="0 0 40.1 40.1" enable-background="new 0 0 40.1 40.1" xml:space="preserve">
<g>
	<g>
		<g>
			<path d="M16.1,36.6h-9c-1,0-1.7-0.8-1.7-1.7V20.7c0-2.8,0.2-4,1.6-7c1.1-2.5,1.4-5.3,1.5-6L8,7.3c0,0,0,0,0,0l0,0l0,0l0,0
				c0,0,0,0,0,0c0,0,0,0,0,0l0,0l0,0l0,0l0,0l0,0v0l0,0v0C7.9,7.2,7.9,7.1,7.9,7V4.7c0-0.2,0.2-0.4,0.4-0.4h6.5
				c0.2,0,0.4,0.2,0.4,0.4V7c0,0.1,0,0.2-0.1,0.3c0,0,0,0,0,0l0,0l0,0l0,0v0c0,0,0,0,0,0l0,0l0,0c0,0,0,0,0,0l0,0v0l0,0l0,0l0,0
				c0,0,0,0,0,0l-0.3,0.3c0.1,0.7,0.3,3.5,1.5,6c1.4,3.1,1.6,4.2,1.6,7v14.2C17.8,35.8,17,36.6,16.1,36.6L16.1,36.6z M8.7,10.8h5.8
				C14,9,14,7.6,14,7.5c0,0,0,0,0,0H9.2c0,0,0,0,0,0C9.2,7.6,9.1,9,8.7,10.8L8.7,10.8z M8.7,6.6h5.7V5.1H8.7V6.6z M7.6,34.1"/>
		</g>
		<g>
			<g>
				<defs>
					<rect id="SVGID_1_" x="18.9" y="26.2" width="15.2" height="9.8"/>
				</defs>
				<clipPath id="SVGID_2_">
					<use xlink:href="#SVGID_1_"  overflow="visible"/>
				</clipPath>
				<path clip-path="url(#SVGID_2_)" d="M32.8,36H19.2c-0.1,0-0.1,0-0.2-0.1c0,0-0.1-0.1-0.1-0.2l0.1-2.7c0-0.1,0-0.1,0.1-0.1
					c0,0,0,0,0,0l0,0l0,0c0,0,0.1-0.1,0.1-0.1h0h0c0.1,0,2.3-0.2,2.3-2.1c0-0.6-0.2-1-0.5-1.4c-0.6-0.6-1.6-0.6-1.6-0.6
					c0,0-0.1,0-0.1,0c-0.1,0-0.1-0.1-0.1-0.2l0-1c0,0,0,0,0-0.1v0h0c0,0,0-0.1,0.1-0.1l0,0c0,0,0,0,0.1-0.1c0,0,0,0,0.1,0l10.7-1.1
					c0,0,0.1,0,0.1,0l2.9,1.1c0,0,0,0,0,0c0,0,0.1,0,0.1,0.1c0,0,0,0,0,0c0,0,0,0,0,0c0,0.1,0.7,1.9,0.7,4.3c0,2.4-1.1,4.1-1.1,4.2
					C32.9,36,32.9,36,32.8,36L32.8,36z M24.3,35.6h8.4c0.2-0.4,1-1.9,1-3.8c0-1.9-0.5-3.5-0.6-4H19.7l0,0.5c0.2,0,0.4-0.1,0.6-0.1
					c1.5,0,2.7,1.2,2.7,2.7c0,1.5-1.2,2.7-2.7,2.7c-0.3,0-0.5,0-0.8-0.1l-0.1,2.2h2.2C22.6,35.6,23.3,35.6,24.3,35.6L24.3,35.6z
					 M21,28.7c0.1,0.1,0.3,0.2,0.4,0.3c0.4,0.4,0.6,1,0.6,1.7c0,1-0.5,1.8-1.4,2.2C20.5,33,20.4,33,20.3,33c1.2,0,2.2-1,2.2-2.2
					C22.5,29.8,21.9,29,21,28.7L21,28.7z M23.8,27.3h8.1l-1.7-0.7L23.8,27.3z M24.4,28.9"/>
			</g>
		</g>
		<g>
			<g>
				<defs>
					<rect id="SVGID_3_" x="14.1" y="23.7" width="20.3" height="13.2"/>
				</defs>
				<clipPath id="SVGID_4_">
					<use xlink:href="#SVGID_3_"  overflow="visible"/>
				</clipPath>
			</g>
		</g>
	</g>
	<path fill="#F0FBFF" d="M8.5,11.6c-0.2,0.8-0.5,1.5-0.8,2.3c-1.3,2.9-1.5,4-1.5,6.7L6.1,34.8c0,0.5,0.4,0.9,0.9,0.9l9,0.1
		c0.5,0,0.9-0.4,0.9-0.9L17,20.7c0-2.7-0.2-3.8-1.4-6.7c-0.3-0.8-0.6-1.6-0.8-2.3L8.5,11.6C8.6,11.6,8.6,11.6,8.5,11.6L8.5,11.6z"/>
	<path d="M7.6,34c-0.2,0-0.4-0.2-0.4-0.4V22.7c0-0.2,0.2-0.4,0.4-0.4c0.2,0,0.4,0.2,0.4,0.4v10.9C8.1,33.8,7.9,34,7.6,34L7.6,34z"/>
	<path fill="#FFD54F" d="M24.3,35.6h8.4c0.2-0.4,1-1.9,1-3.8c0-1.9-0.5-3.5-0.6-4H19.8l0,0.5c0.2,0,0.4-0.1,0.6-0.1
		c1.5,0,2.7,1.2,2.7,2.7c0,1.5-1.2,2.7-2.7,2.7c-0.3,0-0.5,0-0.8-0.1l-0.1,2.2h2.2C22.6,35.6,23.3,35.6,24.3,35.6L24.3,35.6z"/>
	<path fill="#FFD54F" d="M21,28.7c0.1,0.1,0.3,0.2,0.4,0.3c0.4,0.4,0.6,1,0.6,1.7c0,1-0.5,1.8-1.4,2.2c-0.1,0.1-0.2,0.1-0.3,0.1
		c1.2,0,2.2-1,2.2-2.2C22.5,29.8,21.9,29,21,28.7L21,28.7z"/>
	<polygon fill="#FFD54F" points="23.9,27.3 31.9,27.3 30.2,26.7 	"/>
	<g>
		<path d="M30.7,32.9c-0.6,0-1,0.5-1,1c0,0.6,0.5,1,1,1c0.6,0,1-0.5,1-1C31.8,33.3,31.3,32.9,30.7,32.9z M30.7,34.5
			c-0.3,0-0.6-0.3-0.6-0.6c0-0.3,0.3-0.6,0.6-0.6c0.3,0,0.6,0.3,0.6,0.6C31.3,34.2,31.1,34.5,30.7,34.5z"/>
		<path d="M27.4,31.1c-0.7,0-1.3,0.6-1.3,1.3c0,0.7,0.6,1.3,1.3,1.3s1.3-0.6,1.3-1.3C28.7,31.7,28.1,31.1,27.4,31.1z M27.4,33.2
			c-0.5,0-0.9-0.4-0.9-0.9c0-0.5,0.4-0.9,0.9-0.9s0.9,0.4,0.9,0.9C28.3,32.9,27.9,33.2,27.4,33.2z"/>
		<path d="M31.8,28.6c-0.6,0-1.1,0.5-1.1,1.1s0.5,1.1,1.1,1.1c0.6,0,1.1-0.5,1.1-1.1S32.4,28.6,31.8,28.6z M31.8,30.2
			c-0.3,0-0.6-0.3-0.6-0.6c0-0.3,0.3-0.6,0.6-0.6s0.6,0.3,0.6,0.6C32.4,30,32.2,30.2,31.8,30.2z"/>
		<path d="M24.3,28.4c-0.5,0-0.9,0.4-0.9,0.9c0,0.5,0.4,0.9,0.9,0.9c0.5,0,0.9-0.4,0.9-0.9C25.2,28.8,24.8,28.4,24.3,28.4z
			 M24.3,29.8c-0.3,0-0.5-0.2-0.5-0.5s0.2-0.5,0.5-0.5c0.3,0,0.5,0.2,0.5,0.5S24.6,29.8,24.3,29.8z"/>
	</g>
</g>
</svg>
