<?xml version="1.0" encoding="utf-8"?>
<!-- Generator: Adobe Illustrator 18.0.0, SVG Export Plug-In . SVG Version: 6.00 Build 0)  -->
<!DOCTYPE svg PUBLIC "-//W3C//DTD SVG 1.1//EN" "http://www.w3.org/Graphics/SVG/1.1/DTD/svg11.dtd">
<svg version="1.1" id="Layer_1" xmlns="http://www.w3.org/2000/svg" xmlns:xlink="http://www.w3.org/1999/xlink" x="0px" y="0px"
	 viewBox="0 0 40.1 40.1" enable-background="new 0 0 40.1 40.1" xml:space="preserve">
<path d="M29,28c-0.2,0.1-0.4,0.2-0.6,0c-0.1,0-1.6-1.2-2.3-2.8c0,0,0,0,0,0c-3.7,2.3-7.6,3.1-10.3,3.4c0.4,0.8,1.2,2.2,1.3,3.7
	c0.2,2.3-1.5,3.4-1.6,3.4c-0.1,0.1-0.3,0.1-0.4,0c-0.1,0-0.2-0.2-0.3-0.3c0,0-0.5-1.5-1.2-2.4c-0.8-0.9-1.6-1.9-1.7-2.9
	c-0.1-0.6,0.1-1.2,0.2-1.6c-0.5,0.1-1.3,0.3-2,0.1c-1-0.2-2-1.2-2.9-2.2c-0.8-0.9-2.4-1.7-2.4-1.7c-0.1-0.1-0.2-0.2-0.3-0.3
	c0-0.1,0-0.3,0.1-0.4C4.6,24.2,6,22.5,8.5,23c1.6,0.3,3,1.3,3.8,1.8c0.1-0.6,0.2-1.2,0.3-1.9c0.3-1.4,0.9-3.2,1.8-5.1
	c-0.3-0.2-0.7-0.6-1-1c-0.4-0.6-0.7-1.3-0.7-1.3c-0.1-0.2,0-0.4,0.1-0.5c0,0,1.3-1.3,2.4-2.9c1-1.4,0.5-3.5,0.5-3.5
	c-0.1-0.2,0.1-0.5,0.3-0.5c0.1,0,1.3-0.4,3,0.3c1.2,0.5,1.9,1.2,2.2,1.5c3.5-2.5,6.9-3.1,9.4-3.2c3.2-0.1,5.5,0.7,5.6,0.8
	c0.2,0.1,0.3,0.2,0.3,0.4c0,0.1,0,1.9-0.8,4.5c-0.7,2.4-2.2,5.9-5.1,9.2c0.1,0.7,0.2,1.5,0.1,2.4C30.3,26.2,29.1,27.9,29,28
	C29.1,28,29,28,29,28L29,28z M29.1,19.9c-0.5,0.3-1.1,0.7-1.3,1.1c-0.9,1.6-1.2,3-0.8,3.9c0.4,1,1.2,1.7,1.6,2.1
	c0.3-0.6,0.9-1.8,1.1-3.3C29.9,22.2,29.4,20.6,29.1,19.9L29.1,19.9z M14.8,28.7c-0.8,0.1-1.4,0.1-1.8,0.1c-0.1,0.3-0.2,0.9-0.2,1.4
	c0.1,0.7,0.8,1.6,1.5,2.4c0.6,0.6,1,1.5,1.2,2.1c0.4-0.4,0.8-1.1,0.7-2.2C16.1,30.8,15.1,29.2,14.8,28.7L14.8,28.7z M33.3,15.8
	c-0.2-0.1-2.8-1.1-4.6-3c-1.6-1.6-2.1-3.8-2.3-4.6c-2.1,0.7-4.4,1.9-6.7,4.1c-4,3.8-5.6,8-6.2,10.7c-0.5,2.3-0.5,4.1-0.4,4.8
	c1.6,0,7.5-0.2,12.8-3.6c-0.1-1.3,0.5-2.8,1.1-3.8c0.5-0.8,2-1.6,2.1-1.7c0.2-0.1,0.5,0,0.6,0.2c0,0,0.3,0.6,0.6,1.4
	C31.6,18.9,32.5,17.3,33.3,15.8L33.3,15.8z M35.5,8.1c-0.7-0.2-2.5-0.7-4.9-0.6c-1,0-2.2,0.2-3.4,0.5c0.1,0.6,0.6,2.7,2.1,4.2
	C31,14,33.6,15,33.6,15c0,0,0,0,0.1,0C35.1,11.8,35.5,9,35.5,8.1L35.5,8.1z M12.2,25.9c-0.4-0.3-2.1-1.6-3.9-2
	c-1.2-0.3-2.1,0.2-2.5,0.5c0.6,0.3,1.5,0.9,2.1,1.6c0.8,0.9,1.6,1.7,2.4,1.9c0.6,0.1,1.5-0.1,1.9-0.2C12.1,27.3,12.1,26.7,12.2,25.9
	L12.2,25.9z M19,11.7c0.5-0.5,1-0.9,1.5-1.3c-0.3-0.3-0.9-0.8-1.8-1.2c-0.8-0.4-1.5-0.4-1.9-0.3c0.1,0.8,0.2,2.5-0.7,3.8
	c-0.9,1.2-1.9,2.3-2.3,2.7c0.1,0.2,0.3,0.6,0.5,0.9c0.2,0.3,0.4,0.5,0.6,0.7C15.9,15.2,17.2,13.4,19,11.7L19,11.7z M30.1,9.7"/>
<path fill="#29ABE2" d="M33.3,15.8c-0.2-0.1-2.8-1.1-4.6-3c-1.6-1.6-2.1-3.8-2.3-4.6c-2.1,0.7-4.4,1.9-6.7,4.1
	c-4,3.8-5.6,8-6.2,10.7c-0.5,2.3-0.5,4.1-0.4,4.8c1.6,0,7.5-0.2,12.8-3.6c-0.1-1.3,0.5-2.8,1.1-3.8c0.5-0.8,2-1.6,2.1-1.7
	c0.2-0.1,0.5,0,0.6,0.2c0,0,0.3,0.6,0.6,1.4C31.6,18.9,32.5,17.3,33.3,15.8L33.3,15.8z"/>
<path fill="#85DBF9" d="M29.1,19.9c-0.5,0.3-1.1,0.7-1.3,1.1c-0.9,1.6-1.2,3-0.8,3.9c0.4,1,1.2,1.7,1.6,2.1c0.3-0.6,0.9-1.8,1.1-3.3
	C29.9,22.2,29.4,20.6,29.1,19.9L29.1,19.9z"/>
<path fill="#85DBF9" d="M14.8,28.7c-0.8,0.1-1.4,0.1-1.8,0.1c-0.1,0.3-0.2,0.9-0.2,1.4c0.1,0.7,0.8,1.6,1.5,2.4
	c0.6,0.6,1,1.5,1.2,2.1c0.4-0.4,0.8-1.1,0.7-2.2C16.1,30.8,15.1,29.1,14.8,28.7L14.8,28.7z"/>
<path fill="#85DBF9" d="M35.5,8.1c-0.7-0.2-2.5-0.7-4.9-0.6c-1,0-2.2,0.2-3.4,0.5c0.1,0.6,0.6,2.7,2.1,4.2C31,14,33.6,15,33.6,15
	c0,0,0,0,0.1,0C35.1,11.8,35.5,9,35.5,8.1L35.5,8.1z"/>
<path fill="#85DBF9" d="M12.2,25.9c-0.4-0.3-2.1-1.6-3.9-2c-1.2-0.3-2.1,0.2-2.5,0.5c0.6,0.3,1.5,0.9,2.1,1.6
	c0.8,0.9,1.6,1.7,2.4,1.9c0.6,0.1,1.5-0.1,1.9-0.2C12.1,27.3,12.1,26.7,12.2,25.9L12.2,25.9z"/>
<path fill="#85DBF9" d="M19.1,11.6c0.5-0.5,1-0.9,1.5-1.3c-0.3-0.3-0.9-0.8-1.8-1.2c-0.8-0.4-1.5-0.4-1.9-0.3
	c0.1,0.8,0.2,2.5-0.7,3.8c-0.9,1.2-1.9,2.3-2.3,2.7c0.1,0.2,0.3,0.6,0.5,0.9c0.2,0.3,0.4,0.5,0.6,0.7C15.9,15.2,17.2,13.4,19.1,11.6
	L19.1,11.6z"/>
<path d="M31.6,9.2c-0.6-0.6-1.5-0.6-2.1,0c-0.6,0.6-0.6,1.5,0,2.1c0.6,0.6,1.5,0.6,2.1,0C32.2,10.7,32.2,9.8,31.6,9.2z M30.9,10.6
	c-0.2,0.2-0.6,0.2-0.8,0c-0.2-0.2-0.2-0.6,0-0.8c0.2-0.2,0.6-0.2,0.8,0C31.2,10.1,31.2,10.4,30.9,10.6z"/>
</svg>
