<?xml version="1.0" encoding="utf-8"?>
<!-- Generator: Adobe Illustrator 18.0.0, SVG Export Plug-In . SVG Version: 6.00 Build 0)  -->
<!DOCTYPE svg PUBLIC "-//W3C//DTD SVG 1.1//EN" "http://www.w3.org/Graphics/SVG/1.1/DTD/svg11.dtd">
<svg version="1.1" id="Layer_1" xmlns="http://www.w3.org/2000/svg" xmlns:xlink="http://www.w3.org/1999/xlink" x="0px" y="0px"
	 viewBox="0 0 40.1 40.1" enable-background="new 0 0 40.1 40.1" xml:space="preserve">
<path d="M28.8,27.7c-0.2,0.1-0.4,0.2-0.6,0c-0.1,0-1.6-1.2-2.3-2.8c0,0,0,0,0,0c-3.7,2.3-7.6,3.1-10.3,3.4c0.4,0.8,1.2,2.2,1.3,3.7
	c0.2,2.3-1.5,3.4-1.6,3.4c-0.1,0.1-0.3,0.1-0.4,0c-0.1,0-0.2-0.2-0.3-0.3c0,0-0.5-1.5-1.2-2.4c-0.8-0.9-1.6-1.9-1.7-2.9
	c-0.1-0.6,0.1-1.2,0.2-1.6c-0.5,0.1-1.3,0.3-2,0.1c-1-0.2-2-1.2-2.9-2.2c-0.8-0.9-2.4-1.7-2.4-1.7c-0.1-0.1-0.2-0.2-0.3-0.3
	c0-0.1,0-0.3,0.1-0.4c0.1-0.1,1.4-1.8,3.9-1.3c1.6,0.3,3,1.3,3.8,1.8c0.1-0.6,0.2-1.2,0.3-1.9c0.3-1.4,0.9-3.2,1.8-5.1
	c-0.3-0.2-0.7-0.6-1-1c-0.4-0.6-0.7-1.3-0.7-1.3c-0.1-0.2,0-0.4,0.1-0.5c0,0,1.3-1.3,2.4-2.9c1-1.4,0.5-3.5,0.5-3.5
	c-0.1-0.2,0.1-0.5,0.3-0.5c0.1,0,1.3-0.4,3,0.3C20,8.5,20.7,9.2,21,9.5c3.5-2.5,6.9-3.1,9.4-3.2c3.2-0.1,5.5,0.7,5.6,0.8
	c0.2,0.1,0.3,0.2,0.3,0.4c0,0.1,0,1.9-0.8,4.5c-0.7,2.4-2.2,5.9-5.1,9.2c0.1,0.7,0.2,1.5,0.1,2.4C30.1,25.9,28.9,27.6,28.8,27.7
	C28.8,27.7,28.8,27.7,28.8,27.7L28.8,27.7z M28.8,19.6c-0.5,0.3-1.1,0.7-1.3,1.1c-0.9,1.6-1.2,3-0.8,3.9c0.4,1,1.2,1.7,1.6,2.1
	c0.3-0.6,0.9-1.8,1.1-3.3C29.7,21.9,29.1,20.3,28.8,19.6L28.8,19.6z M14.6,28.4c-0.8,0.1-1.4,0.1-1.8,0.1c-0.1,0.3-0.2,0.9-0.2,1.4
	c0.1,0.7,0.8,1.6,1.5,2.4c0.6,0.6,1,1.5,1.2,2.1c0.4-0.4,0.8-1.1,0.7-2.2C15.8,30.5,14.9,28.8,14.6,28.4L14.6,28.4z M33,15.5
	c-0.2-0.1-2.8-1.1-4.6-3c-1.6-1.6-2.1-3.8-2.3-4.6C24,8.6,21.7,9.8,19.4,12c-4,3.8-5.6,8-6.2,10.7c-0.5,2.3-0.5,4.1-0.4,4.8
	c1.6,0,7.5-0.2,12.8-3.6c-0.1-1.3,0.5-2.8,1.1-3.8c0.5-0.8,2-1.6,2.1-1.7c0.2-0.1,0.5,0,0.6,0.2c0,0,0.3,0.6,0.6,1.4
	C31.3,18.6,32.3,17,33,15.5L33,15.5z M35.3,7.8c-0.7-0.2-2.5-0.7-4.9-0.6c-1,0-2.2,0.2-3.4,0.5c0.1,0.6,0.6,2.7,2.1,4.2
	c1.7,1.8,4.3,2.8,4.3,2.8c0,0,0,0,0.1,0C34.9,11.5,35.2,8.7,35.3,7.8L35.3,7.8z M11.9,25.6c-0.4-0.3-2.1-1.6-3.9-2
	c-1.2-0.3-2.1,0.2-2.5,0.5C6.1,24.4,7,25,7.6,25.7c0.8,0.9,1.6,1.7,2.4,1.9c0.6,0.1,1.5-0.1,1.9-0.2C11.9,27,11.9,26.4,11.9,25.6
	L11.9,25.6z M18.8,11.3c0.5-0.5,1-0.9,1.5-1.3c-0.3-0.3-0.9-0.8-1.8-1.2c-0.8-0.4-1.5-0.4-1.9-0.3c0.1,0.8,0.2,2.5-0.7,3.8
	c-0.9,1.2-1.9,2.3-2.3,2.7c0.1,0.2,0.3,0.6,0.5,0.9c0.2,0.3,0.4,0.5,0.6,0.7C15.6,14.9,17,13.1,18.8,11.3L18.8,11.3z M31.2,10.9
	c-0.6,0.6-1.5,0.5-2.1,0c-0.6-0.6-0.5-1.5,0-2.1c0.6-0.6,1.5-0.5,2.1,0C31.8,9.4,31.8,10.3,31.2,10.9L31.2,10.9z M29.8,9.4
	c-0.2,0.2-0.2,0.6,0,0.8c0.2,0.2,0.6,0.2,0.8,0c0.2-0.2,0.2-0.6,0-0.8C30.4,9.2,30,9.2,29.8,9.4L29.8,9.4z M29.8,9.4"/>
</svg>
