<?xml version="1.0" encoding="utf-8"?>
<!-- Generator: Adobe Illustrator 18.0.0, SVG Export Plug-In . SVG Version: 6.00 Build 0)  -->
<!DOCTYPE svg PUBLIC "-//W3C//DTD SVG 1.1//EN" "http://www.w3.org/Graphics/SVG/1.1/DTD/svg11.dtd">
<svg version="1.1" id="Layer_1" xmlns="http://www.w3.org/2000/svg" xmlns:xlink="http://www.w3.org/1999/xlink" x="0px" y="0px"
	 viewBox="0 0 40.1 40.1" enable-background="new 0 0 40.1 40.1" xml:space="preserve">
<g>
	
		<path fill="#C0672F" stroke="#000000" stroke-width="0.75" stroke-linecap="round" stroke-linejoin="round" stroke-miterlimit="10" d="
		M25.9,13.3c0.2-1,2.3-3.2,3-3.7c-0.8-1-1.8-1.5-2.7-1.7c-1.9,0.4-2.7,2.1-3.9,3.7"/>
	
		<path fill="#FBAA41" stroke="#000000" stroke-width="0.75" stroke-linecap="round" stroke-linejoin="round" stroke-miterlimit="10" d="
		M29.9,22.4c0.1,2.8-1.9,7-4.2,8.9c-3.9,3.3-10.5,3.3-12.7,3c-1.9-1.5-4.7-5.8-4.9-9.4c-0.3-3.8,1.2-8.9,4.1-10.5"/>
	
		<path fill="none" stroke="#000000" stroke-width="0.75" stroke-linecap="round" stroke-linejoin="round" stroke-miterlimit="10" d="
		M23.7,28c0.7-0.5,1.5-1.9,1.7-2.8"/>
	
		<path fill="#C0672F" stroke="#000000" stroke-width="0.75" stroke-linecap="round" stroke-linejoin="round" stroke-miterlimit="10" d="
		M31,23.3c0.5-0.8,1-5.2-0.3-6.8c-1.4-1.6-11.1-6.3-14-6.5c-2.4-0.2-5.6,2.6-5.5,4.1c0.2,0.2,1.2-0.1,1.9,0.3
		c0.4,0.2,0.7,1.5,1.2,1.7c0.5,0.3,1.9-0.2,2.5,0.1c0.5,0.3,1.1,1.6,1.7,1.9c0.6,0.3,2-0.3,2.6,0c0.7,0.3,1.1,1.6,1.8,1.9
		c0.8,0.3,1.8-0.2,2.6,0.1c0.8,0.3,0.9,1.4,1.6,1.6c1,0.4,1.7-0.4,2.4-0.1C30.2,22.2,30.7,23.4,31,23.3z"/>
</g>
</svg>
