<?xml version="1.0" encoding="utf-8"?>
<!-- Generator: Adobe Illustrator 18.0.0, SVG Export Plug-In . SVG Version: 6.00 Build 0)  -->
<!DOCTYPE svg PUBLIC "-//W3C//DTD SVG 1.1//EN" "http://www.w3.org/Graphics/SVG/1.1/DTD/svg11.dtd">
<svg version="1.1" id="Layer_1" xmlns="http://www.w3.org/2000/svg" xmlns:xlink="http://www.w3.org/1999/xlink" x="0px" y="0px"
	 viewBox="0 0 40.1 40.1" enable-background="new 0 0 40.1 40.1" xml:space="preserve">
<g>
	<path fill="#42BD41" d="M26.9,13.7c-0.1,0-0.3,0-0.4-0.1c-0.2-0.2-0.2-0.4,0-0.6l2.5-2.8c0.2-0.2,0.4-0.2,0.6,0
		c0.2,0.2,0.2,0.4,0,0.6L27,13.5C27,13.6,26.9,13.6,26.9,13.7z"/>
	<path fill="#42BD41" d="M31.6,12.8c0,0-0.1,0-0.1,0l-3.8,0c-0.2,0-0.4-0.2-0.4-0.4c0-0.2,0.2-0.4,0.4-0.5l3.8,0
		c0.2,0,0.4,0.2,0.5,0.4C31.9,12.6,31.8,12.8,31.6,12.8z"/>
	<path fill="#42BD41" d="M27.5,12.6c0,0-0.1,0-0.1,0c-0.2,0-0.5-0.2-0.5-0.4l-0.4-3.8C26.6,8.2,26.8,8,27,8c0.2,0,0.5,0.2,0.5,0.4
		l0.4,3.8C27.9,12.4,27.7,12.6,27.5,12.6z"/>
	<path fill="#FFB74D" stroke="#000000" stroke-width="0.75" stroke-miterlimit="10" d="M9.7,33.1L9.7,33.1c-0.2,0.1-0.6,0.2-0.8-0.1
		c-0.3-0.2-0.8-0.7,3.8-9.6c2.1-4,5-9.3,6.5-10.9c0.6-0.6,1.2-1,1.9-1.3c2.8-1,5.7,1.6,5.9,1.7c0.1,0.1,1.3,1.2,2,2.8
		c0.7,1.8,0.5,3.5-0.8,4.8C25.7,23.4,12.3,32.2,9.7,33.1z"/>
	<path d="M19.9,18.9c-0.2,0.1-0.3,0-0.5-0.1c-0.6-0.6-2.2-1.3-2.7-1.5c-0.2-0.1-0.3-0.3-0.3-0.6c0.1-0.2,0.3-0.3,0.6-0.3
		c0.1,0,2.2,0.8,3.1,1.7c0.2,0.2,0.2,0.5,0,0.6C20,18.8,20,18.8,19.9,18.9z"/>
	<path d="M16.7,23.4c-0.2,0.1-0.3,0-0.5-0.1c-0.7-0.7-2.1-1.2-2.1-1.2c-0.2-0.1-0.4-0.3-0.3-0.6c0.1-0.2,0.3-0.4,0.6-0.3
		c0.1,0,1.6,0.6,2.5,1.5c0.2,0.2,0.2,0.5,0,0.6C16.9,23.3,16.8,23.4,16.7,23.4z"/>
	<path d="M22.4,25.1c-0.2,0.1-0.4,0-0.5-0.1c0,0-0.9-1.2-1.9-1.6c-0.2-0.1-0.3-0.4-0.2-0.6c0.1-0.2,0.4-0.3,0.6-0.2
		c1.1,0.6,2.1,1.8,2.2,1.9c0.2,0.2,0.1,0.5-0.1,0.6C22.5,25,22.5,25.1,22.4,25.1z"/>
</g>
</svg>
