<?xml version="1.0" encoding="utf-8"?>
<!-- Generator: Adobe Illustrator 18.0.0, SVG Export Plug-In . SVG Version: 6.00 Build 0)  -->
<!DOCTYPE svg PUBLIC "-//W3C//DTD SVG 1.1//EN" "http://www.w3.org/Graphics/SVG/1.1/DTD/svg11.dtd">
<svg version="1.1" id="Layer_1" xmlns="http://www.w3.org/2000/svg" xmlns:xlink="http://www.w3.org/1999/xlink" x="0px" y="0px"
	 viewBox="0 0 40.1 40.1" enable-background="new 0 0 40.1 40.1" xml:space="preserve">
<g>
	<path fill="none" stroke="#000000" stroke-width="0.75" stroke-miterlimit="10" d="M10.1,33.8L10.1,33.8c-0.2,0.1-0.6,0.2-0.8-0.1
		c-0.3-0.2-0.8-0.7,3.8-9.6c2.1-4,5-9.3,6.5-10.9c0.6-0.6,1.2-1,1.9-1.3c2.8-1,5.7,1.6,5.9,1.7c0.1,0.1,1.3,1.2,2,2.8
		c0.7,1.8,0.5,3.5-0.8,4.8C26.2,24.1,12.8,32.9,10.1,33.8z"/>
	<path fill="#231F20" d="M27.3,14.3c-0.1,0-0.3,0-0.4-0.1c-0.2-0.2-0.2-0.4,0-0.6l2.5-2.8c0.2-0.2,0.4-0.2,0.6,0
		c0.2,0.2,0.2,0.4,0,0.6l-2.5,2.8C27.5,14.3,27.4,14.3,27.3,14.3z"/>
	<path fill="#231F20" d="M32.1,13.5c0,0-0.1,0-0.1,0l-3.8,0c-0.2,0-0.4-0.2-0.4-0.4c0-0.2,0.2-0.4,0.4-0.5l3.8,0
		c0.2,0,0.4,0.2,0.5,0.4C32.4,13.3,32.2,13.5,32.1,13.5z"/>
	<path fill="#231F20" d="M28,13.3c0,0-0.1,0-0.1,0c-0.2,0-0.5-0.2-0.5-0.4l-0.4-3.8c0-0.2,0.2-0.5,0.4-0.5c0.2,0,0.5,0.2,0.5,0.4
		l0.4,3.8C28.3,13,28.2,13.2,28,13.3z"/>
	<path fill="#231F20" d="M20.4,19.5c-0.2,0.1-0.3,0-0.5-0.1c-0.6-0.6-2.2-1.3-2.7-1.5c-0.2-0.1-0.3-0.3-0.3-0.6
		c0.1-0.2,0.3-0.3,0.6-0.3c0.1,0,2.2,0.8,3.1,1.7c0.2,0.2,0.2,0.5,0,0.6C20.5,19.5,20.4,19.5,20.4,19.5z"/>
	<path fill="#231F20" d="M17.2,24.1c-0.2,0.1-0.3,0-0.5-0.1c-0.7-0.7-2.1-1.2-2.1-1.2c-0.2-0.1-0.4-0.3-0.3-0.6
		c0.1-0.2,0.3-0.4,0.6-0.3c0.1,0,1.6,0.6,2.5,1.5c0.2,0.2,0.2,0.5,0,0.6C17.3,24,17.3,24,17.2,24.1z"/>
	<path fill="#231F20" d="M22.9,25.8c-0.2,0.1-0.4,0-0.5-0.1c0,0-0.9-1.2-1.9-1.6c-0.2-0.1-0.3-0.4-0.2-0.6c0.1-0.2,0.4-0.3,0.6-0.2
		c1.1,0.6,2.1,1.8,2.2,1.9c0.2,0.2,0.1,0.5-0.1,0.6C23,25.7,22.9,25.7,22.9,25.8z"/>
</g>
</svg>
